# xmcd
#
# Track frame offsets:
#	150
#	12341
#	21932
#	35105
#	47226
#	56318
#	69404
#	81761
#	95142
#	107910
#	119405
#	128077
#	140097
#	152605
#	164122
#	177528
#	190025
#	201604
#	214227
#	228812
#	242316
#	254586
#	266351
#	279359
#	293270
#
# Disc length: 4086 seconds
#
# Revision: 3
# Processed by: cddbd v1.5.2PL0 Copyright (c) Steve Scherf et al.
# Submitted via: audiograbber 1.83.01
#
DISCID=710ff419
DTITLE=Various Artist - Eric Clapton's Jukebox, Songs That Inspired The Man
DYEAR=2011
DGENRE=Blues
TTITLE0=Sonny Terry and Brownie McGhee - Whoopin' The Blues
TTITLE1=Buddy Holly - Well... All Right
TTITLE2=Chuck Berry - Too Much Monkey Business
TTITLE3=Billy Boy Arnold - I Wish You Would
TTITLE4=Memphis Slim - Steppin' Out
TTITLE5=Little Walter - It Ain't Right
TTITLE6=Howlin' Wolf - Spoonful
TTITLE7=Muddy Waters - Rollin' And Tumblin'
TTITLE8=Skip James - I'm So Glad
TTITLE9=Jimi Hendrix - Hear My Train A-Comin'
TTITLE10=The Band - Up On Cripple Creek
TTITLE11=Robert Johnson - Crossroads
TTITLE12=Little Walter - Key To The Highway
TTITLE13=Chuck Willis - It's Too Late
TTITLE14=Freddie King - Have You Ever Loved A Woman
TTITLE15=Bob Marley - Trench Town Rock
TTITLE16=Johnny Otis - Willie And The Hand Jive
TTITLE17=Elmore James - The Sky Is Crying
TTITLE18=Johnny Moore's Three Blazers - Driftin' Blues
TTITLE19=Bobby 'Blue' Bland - Further On Up The Road
TTITLE20=Double Trouble - Otis Rush
TTITLE21=Arthur Crudup - Mean Old Frisco Blues
TTITLE22=Maceo Merriweather - Worried Life Blues
TTITLE23=Bo Diddley - Before You Accuse Me
TTITLE24=Big Bill Broonzy - Hey Hey
EXTD=YEAR: 2011
EXTT0=
EXTT1=
EXTT2=
EXTT3=
EXTT4=
EXTT5=
EXTT6=
EXTT7=
EXTT8=
EXTT9=
EXTT10=
EXTT11=
EXTT12=
EXTT13=
EXTT14=
EXTT15=
EXTT16=
EXTT17=
EXTT18=
EXTT19=
EXTT20=
EXTT21=
EXTT22=
EXTT23=
EXTT24=
PLAYORDER=
